<?xml version="1.0" encoding="UTF-8" standalone="no"?>
<!DOCTYPE svg PUBLIC "-//W3C//DTD SVG 1.1//EN" "http://www.w3.org/Graphics/SVG/1.1/DTD/svg11.dtd">
<svg width="100%" height="100%" viewBox="0 0 1680 1680" version="1.1" xmlns="http://www.w3.org/2000/svg" xmlns:xlink="http://www.w3.org/1999/xlink" xml:space="preserve" xmlns:serif="http://www.serif.com/" style="fill-rule:evenodd;clip-rule:evenodd;stroke-linejoin:round;stroke-miterlimit:2;">
    <g id="Mesa-de-trabajo1" serif:id="Mesa de trabajo1" transform="matrix(1,0,0,1,-2385.3,-6181.81)">
        <rect x="2385.3" y="6181.81" width="1679.69" height="1679.69" style="fill:none;"/>
        <g transform="matrix(0.924825,0,0,0.924825,-4045.98,11305.1)">
            <g transform="matrix(1,0,0,1,-7.1174,-7.1174)">
                <circle cx="7871.14" cy="-4626.21" r="804.08" style="fill:white;"/>
            </g>
            <g id="BLISS-BAKERY-AND-COFFE-LOGO.eps" serif:id="BLISS BAKERY AND COFFE-LOGO.eps" transform="matrix(0.605409,0,0,0.605409,7862.49,-4630.78)">
                <g transform="matrix(1,0,0,1,-1500,-1500)">
                    <g transform="matrix(4.16667,0,0,4.16667,0,0)">
                        <path d="M360.009,121.232C491.879,121.232 598.78,228.133 598.78,360.002C598.78,491.871 491.879,598.773 360.009,598.773C228.14,598.773 121.239,491.871 121.239,360.002C121.239,228.133 228.14,121.232 360.009,121.232Z" style="fill:rgb(35,31,32);"/>
                        <path d="M539.387,416.139C539.395,416.135 557.82,407.154 594.968,404.274C594.49,406.854 593.924,409.595 593.256,412.422C575.414,412.995 557.971,415.514 540.888,420.841C541.96,424.85 543.126,429.317 544.384,434.24C545.803,439.79 546.749,445.381 547.222,451.015C547.694,456.649 547.458,462.167 546.512,467.57C545.566,472.973 543.556,477.701 540.483,481.754C534.808,489.347 528.306,493.878 520.976,495.35C513.646,496.821 507.143,496.091 501.468,493.161C495.793,490.231 491.833,485.436 489.586,478.776C487.34,472.117 488.463,464.334 492.956,455.427C496.267,449.225 501.173,443.355 507.675,437.819C514.178,432.282 520.266,427.491 525.941,423.446C525.232,420.908 523.99,417.706 522.217,413.842C520.444,409.978 518.67,405.76 516.897,401.186C515.557,397.731 514.352,394.095 513.282,390.278C505.591,396.439 498.107,402.374 490.828,408.087C483.025,414.211 475.341,420.087 467.774,425.718C468.956,430.106 470.257,435.076 471.675,440.626C473.094,446.176 474.04,451.768 474.513,457.401C474.986,463.035 474.75,468.553 473.803,473.956C472.858,479.359 470.848,484.088 467.774,488.141C462.099,495.733 455.597,500.264 448.267,501.736C440.937,503.207 434.434,502.478 428.76,499.548C423.085,496.618 419.124,491.823 416.878,485.163C414.632,478.503 415.755,470.72 420.247,461.813C423.558,455.611 428.464,449.741 434.967,444.205C441.469,438.668 447.557,433.877 453.232,429.833C452.523,427.294 451.281,424.092 449.508,420.228C447.735,416.364 445.961,412.146 444.188,407.573C443.045,404.625 442.001,401.545 441.054,398.335C436.391,405.478 431.287,412.939 425.745,420.72C419.006,430.179 412.681,438.241 406.769,444.908C402.277,450.032 398.198,453.346 394.533,454.85C390.868,456.354 387.794,456.447 385.312,455.128C382.829,453.809 380.937,451.315 379.637,447.646C378.336,443.977 377.804,439.65 378.041,434.663C378.041,432.062 378.336,429.081 378.927,425.718C379.518,422.356 380.287,418.86 381.233,415.23C381.769,413.041 382.341,410.83 382.952,408.597L381.587,410.589C377.804,416.123 373.607,422.166 368.996,428.719C364.386,435.271 359.598,442.017 354.632,448.956C349.667,455.894 344.997,462.393 340.622,468.452C336.248,474.511 332.228,479.948 328.563,484.762C324.899,489.577 322.12,493.013 320.228,495.071C315.736,499.721 311.894,502.187 308.702,502.467C305.509,502.748 302.79,501.804 300.544,499.637C298.298,497.47 296.642,494.423 295.578,490.497C294.515,486.571 293.864,482.726 293.628,478.964C293.155,470.257 294.16,458.819 296.642,444.65C298.436,434.416 300.692,423.555 303.41,412.067C297.547,417.175 291.095,421.843 284.052,426.071C274.594,431.749 264.19,437.924 252.84,444.596C251.658,449.665 250.239,454.992 248.584,460.576C246.929,466.159 244.978,471.532 242.732,476.695C240.485,481.858 237.944,486.692 235.106,491.198C232.269,495.703 229.077,499.412 225.53,502.324C218.909,508.108 212.23,510.941 205.491,510.823C198.752,510.706 193.668,508.61 190.24,504.537C186.811,500.464 185.865,494.991 187.402,488.117C188.939,481.243 194.792,473.931 204.959,466.181C208.269,463.526 211.934,461.016 215.954,458.654C219.974,456.291 224.939,453.431 230.85,450.074C233.451,441.807 235.461,435.187 236.88,430.215C238.298,425.243 239.363,420.834 240.072,416.988C243.382,399.91 243.855,390.647 241.491,389.2C240.308,388.594 238.831,388.782 237.057,389.766C235.284,390.749 233.333,392.221 231.205,394.181C229.077,396.142 226.889,398.344 224.643,400.788C222.397,403.231 220.446,405.59 218.791,407.863C212.407,415.517 206.2,423.629 200.171,432.198C194.141,440.766 189.59,447.551 186.516,452.55C185.333,454.308 184.328,455.402 183.501,455.829C182.673,456.257 182.023,455.19 181.55,452.631C180.841,448.91 180.545,443.97 180.664,437.812C180.782,431.654 181.136,425.121 181.727,418.212C182.319,411.302 183.087,404.438 184.033,397.616C184.554,393.854 185.076,390.398 185.597,387.248C172.203,392.535 152.198,398.776 124.888,403.161C124.262,399.734 123.752,396.375 123.34,393.226C145.542,390.865 166.848,386.549 187.115,379.026C189.008,370.328 191.823,359.812 195.56,347.48C199.461,334.606 204.25,321.358 209.924,307.736C215.599,294.115 222.16,281.006 229.609,268.411C237.057,255.816 245.274,245.341 254.259,236.986C264.899,227.066 275.126,221.616 284.938,220.636C294.751,219.656 302.495,221.872 308.17,227.285C313.844,232.698 316.682,240.724 316.682,251.365C316.682,262.005 312.19,273.985 303.204,287.307C297.056,296.359 289.726,305.397 281.215,314.42C272.702,323.444 263.953,331.897 254.968,339.78C245.983,347.662 237.234,354.815 228.722,361.238C220.21,367.659 212.881,372.913 206.734,377L206.732,377.001L206.732,377.002C204.604,382.863 202.712,388.349 201.058,393.46C199.402,398.571 197.806,403.677 196.269,408.777C194.732,413.877 193.195,419.273 191.659,424.965C190.121,430.657 188.525,436.886 186.87,443.651C189.471,439.876 193.373,434.272 198.574,426.84C203.777,419.408 209.688,411.736 216.308,403.825C221.51,397.929 226.298,392.898 230.673,388.731C235.047,384.563 239.126,382.55 242.909,382.69C248.348,382.686 252.131,384.954 254.259,389.496C256.387,394.038 257.569,399.432 257.805,405.677C258.042,411.923 257.687,418.102 256.742,424.214C255.796,430.327 254.968,434.951 254.259,438.087C264.899,431.714 274.535,425.962 283.165,420.829C291.367,415.952 298.769,410.342 305.369,404.004C305.818,402.198 306.279,400.377 306.751,398.541C311.007,381.97 316.032,364.8 321.824,347.031C327.618,329.26 333.824,312.459 340.445,296.627C347.066,280.794 353.864,266.601 360.839,254.047C367.814,241.494 374.612,232.089 381.233,225.833C388.09,219.319 394.888,214.762 401.627,212.16C408.366,209.558 414.573,208.659 420.247,209.461C425.922,210.263 430.828,212.492 434.966,216.148C439.104,219.804 441.942,224.58 443.479,230.474C445.015,236.369 445.015,243.226 443.479,251.045C441.942,258.865 438.336,267.162 432.661,275.936C426.986,284.947 420.07,293.948 411.913,302.94C403.755,311.933 395.302,320.36 386.553,328.222C377.804,336.084 369.292,343.216 361.016,349.618C352.74,356.019 345.647,361.253 339.736,365.319C339.027,367.037 337.844,370.51 336.189,375.739C334.534,380.968 332.583,387.169 330.337,394.341C328.09,401.514 325.785,409.283 323.421,417.648C321.056,426.013 318.751,434.137 316.504,442.019C314.258,449.901 312.307,457.165 310.652,463.813C308.997,470.461 307.815,475.708 307.106,479.553C306.396,483.399 306.042,486.799 306.042,489.755C306.042,492.711 306.396,494.867 307.106,496.223C307.815,497.579 309.056,498.002 310.829,497.492C312.603,496.982 315.026,495.055 318.101,491.711C320.938,488.388 325.43,482.436 331.578,473.857C337.726,465.278 344.287,456.012 351.263,446.059C358.238,436.107 365.036,426.406 371.656,416.958C378.098,407.765 383.197,400.537 386.953,395.273C387.726,392.902 388.539,390.508 389.391,388.09C392.701,378.696 396.365,369.921 400.386,361.766C404.641,360.446 407.775,360.584 409.784,362.181C411.794,363.778 413.036,366.151 413.508,369.302C413.981,372.453 413.863,376.01 413.154,379.974C412.444,383.937 411.38,387.755 409.962,391.426C409.489,392.177 408.366,394.759 406.592,399.17C404.819,403.583 402.868,408.66 400.74,414.404C398.612,420.147 396.602,425.939 394.711,431.78C392.819,437.621 391.696,442.272 391.341,445.731C390.986,449.191 391.755,450.897 393.647,450.849C395.538,450.801 399.085,447.711 404.287,441.58C410.435,434.655 416.523,426.968 422.553,418.517C428.369,410.365 434.02,401.732 439.507,392.619C438.258,387.503 437.749,382.266 437.981,376.906C438.454,373.082 439.4,369.393 440.819,365.839C442.237,362.286 444.247,359.214 446.848,356.62C450.631,352.978 454.592,350.443 458.73,349.015C462.868,347.588 466.769,347.304 470.434,348.165C474.099,349.025 477.114,350.888 479.479,353.754C481.843,356.621 483.143,360.526 483.38,365.471C483.38,367.599 483.262,369.678 483.025,371.709C482.789,373.739 482.198,375.86 481.252,378.071C480.779,379.531 479.833,380.087 478.414,379.739C476.996,379.391 476.523,378.605 476.996,377.381C478.651,373.689 479.242,369.854 478.769,365.876C478.533,362.823 477.764,360.407 476.463,358.63C475.163,356.853 473.626,355.864 471.853,355.665C470.08,355.467 468.247,356.041 466.355,357.389C464.464,358.738 462.927,360.765 461.745,363.47C460.799,365.444 460.148,367.333 459.794,369.138C459.439,370.943 459.144,372.683 458.907,374.359C458.434,378.657 458.494,383.144 459.085,387.821C459.676,392.498 460.385,396.929 461.213,401.112C462.04,405.295 462.986,409.173 464.05,412.744C465.114,416.316 465.883,419.263 466.355,421.586C473.685,416.213 481.37,410.336 489.409,403.955C497.199,397.773 504.766,391.721 512.111,385.799C510.938,380.822 510.465,375.728 510.69,370.52C511.163,366.695 512.109,363.006 513.527,359.453C514.946,355.9 516.956,352.827 519.557,350.234C523.34,346.591 527.301,344.056 531.438,342.629C535.576,341.201 539.478,340.918 543.143,341.779C546.808,342.639 549.822,344.502 552.187,347.368C554.551,350.235 555.852,354.14 556.089,359.084C556.089,361.212 555.97,363.292 555.734,365.323C555.497,367.353 554.906,369.474 553.96,371.685C553.488,373.145 552.542,373.701 551.123,373.353C549.704,373.004 549.231,372.219 549.704,370.995C551.36,367.303 551.951,363.467 551.478,359.489C551.241,356.436 550.473,354.021 549.172,352.243C547.872,350.466 546.335,349.478 544.562,349.279C542.788,349.08 540.955,349.655 539.064,351.003C537.173,352.352 535.635,354.379 534.453,357.083C533.507,359.058 532.857,360.947 532.502,362.752C532.148,364.557 531.852,366.297 531.616,367.973C531.143,372.271 531.202,376.758 531.793,381.435C532.384,386.112 533.094,390.542 533.921,394.725C534.749,398.909 535.695,402.787 536.758,406.358C537.823,409.93 538.591,412.877 539.064,415.2L539.387,416.139ZM209.57,369.303C214.771,365.537 221.333,360.586 229.254,354.452C237.175,348.318 245.333,341.513 253.727,334.037C262.121,326.56 270.397,318.621 278.554,310.22C286.712,301.819 293.628,293.35 299.303,284.812C304.505,277.261 308.052,270.152 309.943,263.484C311.835,256.815 312.426,251.029 311.717,246.126C311.007,241.223 309.293,237.354 306.574,234.518C303.854,231.684 300.426,230.271 296.288,230.279C292.15,230.288 287.539,231.816 282.456,234.864C277.372,237.911 272.229,242.974 267.027,250.051C261.352,257.643 255.56,266.96 249.648,278.001C243.737,289.043 238.18,300.289 232.978,311.741C227.776,323.193 223.107,334.125 218.969,344.538C214.831,354.95 211.698,363.206 209.57,369.303ZM213.826,490.229C216.427,486.218 219.087,480.959 221.806,474.455C224.525,467.95 226.83,461.895 228.722,456.291C223.993,459.07 220.033,461.487 216.84,463.541C213.648,465.595 210.634,467.692 207.796,469.833C200.467,475.206 195.737,480.705 193.609,486.33C191.481,491.956 191.008,496.312 192.19,499.4C193.373,502.489 195.974,503.62 199.993,502.794C204.013,501.968 208.623,497.78 213.826,490.229ZM341.863,357.684C346.829,353.937 353.154,349.066 360.839,343.071C368.524,337.076 376.504,330.346 384.78,322.88C393.055,315.414 401.095,307.437 408.898,298.95C416.7,290.461 423.321,281.958 428.76,273.441C436.09,262.158 439.813,252.017 439.932,243.022C440.05,234.027 438.04,227.523 433.902,223.512C429.764,219.502 424.089,218.463 416.878,220.397C409.666,222.331 402.395,228.467 395.065,238.806C389.627,246.376 384.189,255.662 378.75,266.661C373.312,277.661 368.169,288.872 363.322,300.292C358.474,311.713 354.218,322.609 350.554,332.98C346.888,343.351 343.992,351.586 341.863,357.684ZM422.375,335.361C424.74,337.282 425.922,339.779 425.922,342.852C425.922,345.926 424.74,348.513 422.375,350.612C420.484,352.906 418.119,354.178 415.282,354.427C412.444,354.676 409.844,353.841 407.479,351.921C405.587,350.195 404.641,347.796 404.641,344.721C404.641,341.648 405.587,338.964 407.479,336.67C409.844,334.334 412.444,333.042 415.282,332.792C418.119,332.543 420.484,333.399 422.375,335.361ZM454.651,433.964C452.287,435.827 449.626,437.952 446.671,440.339C443.715,442.727 440.759,445.233 437.804,447.857C434.848,450.481 432.129,453.144 429.646,455.844C427.164,458.545 425.213,461.14 423.794,463.629C420.957,468.844 419.893,474.08 420.602,479.338C421.311,484.596 423.085,488.696 425.922,491.639C428.76,494.582 432.365,495.803 436.74,495.3C441.115,494.798 445.43,491.286 449.686,484.764C451.814,481.267 453.41,477.343 454.474,472.993C455.538,468.644 456.247,464.207 456.602,459.684C456.956,455.16 456.956,450.667 456.602,446.206C456.247,441.745 455.597,437.664 454.651,433.964ZM527.36,427.577C524.995,429.441 522.335,431.566 519.379,433.953C516.424,436.341 513.468,438.847 510.512,441.471C507.557,444.095 504.838,446.758 502.355,449.458C499.872,452.159 497.921,454.754 496.503,457.243C493.665,462.458 492.601,467.694 493.311,472.952C494.02,478.21 495.793,482.31 498.631,485.253C501.468,488.196 505.074,489.417 509.449,488.914C513.823,488.411 518.138,484.9 522.394,478.378C524.522,474.881 526.118,470.957 527.182,466.607C528.246,462.258 528.956,457.821 529.311,453.298C529.665,448.774 529.665,444.281 529.311,439.82C528.956,435.359 528.306,431.278 527.36,427.577Z" style="fill:white;"/>
                        <path d="M362.852,38.393C363.69,38.4 364.528,38.412 365.366,38.425C366.751,38.449 368.135,38.481 369.519,38.523C371.254,38.573 372.985,38.636 374.714,38.713C375.132,38.731 375.548,38.753 375.965,38.774C420.358,40.925 462.801,52.214 501.178,71.002C539.866,89.851 575.084,116.635 604.189,150.663L604.235,150.716C605.604,152.317 606.958,153.935 608.3,155.567C608.928,156.329 609.552,157.095 610.174,157.862C610.938,158.809 611.698,159.761 612.453,160.719C613.689,162.282 614.909,163.858 616.117,165.445L616.646,166.142C638.702,195.281 655.97,228.435 667.157,264.557L667.182,264.547C667.388,265.209 667.577,265.874 667.779,266.536L668.079,267.537C681.317,311.529 684.697,357.14 678.937,401.368L678.991,401.371C675.022,432.17 666.626,461.784 654.418,489.479C654.276,489.801 654.14,490.126 653.997,490.448C653.683,491.154 653.358,491.855 653.039,492.558C633.033,536.903 602.816,577.069 563.352,609.194C563.088,609.41 562.825,609.626 562.56,609.841C561.539,610.668 560.509,611.487 559.475,612.302C558.39,613.162 557.299,614.016 556.202,614.862C555.896,615.098 555.589,615.332 555.281,615.567C529.657,635.189 500.888,651.096 469.69,662.387C468.931,662.664 468.169,662.925 467.409,663.195C466.222,663.614 465.038,664.037 463.846,664.443C428.184,676.642 391.271,682.227 354.738,681.591C306.578,680.861 260.496,669.332 219.122,649.119L218.644,648.885C217.054,648.105 215.47,647.315 213.894,646.51C212.953,646.031 212.016,645.542 211.079,645.053C210.285,644.637 209.49,644.222 208.699,643.8C207.018,642.906 205.345,641.993 203.678,641.068L203.555,640.999C175.118,625.201 148.842,604.963 125.885,580.543L125.927,580.516C96.085,548.881 72.461,511.047 57.313,468.774C56.79,467.325 56.295,465.87 55.795,464.417C55.607,463.87 55.409,463.327 55.225,462.778L55.231,462.778C44.381,430.682 38.871,397.588 38.424,364.678C38.417,364.255 38.414,363.834 38.409,363.412C38.391,361.557 38.387,359.703 38.401,357.85C38.408,356.494 38.427,355.14 38.451,353.788C38.468,352.945 38.487,352.103 38.511,351.262C39.8,301.577 52.546,254.166 74.472,211.964C92.903,176.327 118.184,143.838 149.752,116.629C150.368,116.096 150.985,115.564 151.605,115.036C152.638,114.16 153.677,113.289 154.723,112.424C156.091,111.287 157.469,110.163 158.857,109.048C159.215,108.762 159.572,108.476 159.931,108.192C188.777,85.229 221.786,67.04 257.902,54.99C292.236,43.467 327.701,38.051 362.852,38.393ZM673.16,352.88L673.125,352.88C672.896,343.302 672.251,333.654 671.127,323.949C668.951,305.169 665.16,286.967 659.896,269.476L659.878,269.415C655.018,253.277 648.901,237.744 641.675,222.899L641.624,222.922C637.42,214.313 632.81,205.813 627.74,197.462C622.192,188.324 616.249,179.575 609.95,171.215L609.418,170.514C608.246,168.968 607.055,167.442 605.859,165.923C605.124,164.994 604.389,164.067 603.644,163.147C603.038,162.396 602.426,161.651 601.815,160.906C600.504,159.318 599.188,157.734 597.848,156.172L597.821,156.142C570.028,123.776 535.841,97.327 497.489,78.549C459.39,59.981 417.848,49.305 375.559,47.165C375.146,47.145 374.733,47.123 374.319,47.104C372.642,47.026 370.963,46.971 369.284,46.92C367.929,46.882 366.574,46.846 365.215,46.824C364.405,46.81 363.595,46.802 362.785,46.794C349.972,46.69 337.011,47.371 323.955,48.885C301.95,51.435 280.75,56.221 260.54,62.966C238.931,70.221 217.781,79.955 197.478,92.282C186.091,99.195 175.307,106.723 165.132,114.788C164.802,115.051 164.472,115.313 164.144,115.577C162.77,116.675 161.416,117.789 160.065,118.906C159.061,119.741 158.057,120.576 157.063,121.423C156.449,121.944 155.842,122.47 155.233,122.995C125.176,149.009 100.266,180.549 81.933,215.825C60.207,257.821 48.236,304.288 46.908,351.497C46.887,352.311 46.865,353.125 46.85,353.94C46.823,355.265 46.811,356.591 46.801,357.917C46.79,359.712 46.789,361.507 46.809,363.307C46.813,363.727 46.818,364.146 46.824,364.565C46.983,374.982 47.666,385.488 48.89,396.056C49.568,401.905 50.415,407.692 51.404,413.423L51.328,413.431C54.186,429.986 58.431,446.429 64.057,462.606C64.541,464.009 65.037,465.405 65.541,466.798C66.101,468.336 66.671,469.872 67.256,471.405C67.453,471.925 67.647,472.447 67.847,472.966C74.411,489.894 82.546,506.483 92.297,522.544C95.352,527.577 98.536,532.484 101.826,537.28L101.789,537.301C129.353,577.381 165.879,610.449 208.132,633.93C208.363,634.057 208.595,634.183 208.826,634.31C210.279,635.113 211.741,635.902 213.208,636.682C214.293,637.257 215.382,637.824 216.473,638.385C217.091,638.705 217.709,639.025 218.33,639.34C259.06,659.956 303.89,671.469 349.465,673.053L349.798,673.062C351.63,673.124 353.465,673.166 355.3,673.195C368.742,673.384 382.349,672.71 396.062,671.121C418.684,668.5 440.46,663.525 461.179,656.477C462.518,656.019 463.854,655.546 465.189,655.069C465.753,654.869 466.319,654.674 466.881,654.471C485.926,647.539 504.574,638.645 522.559,627.725C532.221,621.859 541.449,615.551 550.239,608.848C550.46,608.679 550.682,608.512 550.902,608.342C552.031,607.477 553.143,606.597 554.257,605.719C555.188,604.982 556.121,604.248 557.043,603.501C557.342,603.259 557.637,603.014 557.935,602.772C595.21,572.323 625.096,533.579 645.096,489.737C645.459,488.938 645.83,488.143 646.186,487.342C646.335,487.009 646.476,486.672 646.624,486.338C665.047,444.438 674.165,398.816 673.16,352.88Z" style="fill:rgb(35,31,32);"/>
                        <path d="M131.922,202.577C135.585,204.943 138.084,207.819 139.42,211.206L139.452,211.156C141.073,215.06 140.689,218.86 138.302,222.556C137.129,224.37 135.66,225.778 133.894,226.78C132.128,227.782 130.247,228.353 128.252,228.492L132.082,230.967L130.259,233.789L94.628,210.77L96.451,207.948L109.569,216.28C108.821,214.415 108.58,212.522 108.846,210.599C109.113,208.675 109.843,206.789 111.037,204.941C113.337,201.38 116.639,199.513 120.942,199.34L120.891,199.308C124.583,199.121 128.26,200.211 131.922,202.577ZM130.099,205.399C127.176,203.51 124.222,202.554 121.237,202.531L121.27,202.481C118.066,202.649 115.596,204.077 113.859,206.765C111.971,209.688 111.602,212.617 112.754,215.552C113.813,218.188 115.904,220.515 119.029,222.534C121.986,224.444 124.967,225.323 127.971,225.168C131.219,224.932 133.721,223.454 135.479,220.733C137.259,217.978 137.535,215.155 136.306,212.266C135.159,209.62 133.09,207.331 130.099,205.399ZM177.44,165.869C177.441,165.925 177.449,165.975 177.464,166.017C177.479,166.059 177.488,166.108 177.489,166.165C178.147,170.394 176.955,174.098 173.913,177.277C170.898,180.426 167.236,181.794 162.927,181.379C159.241,181.007 155.765,179.259 152.5,176.134C149.263,173.036 147.378,169.626 146.844,165.903C146.269,161.644 147.49,157.939 150.504,154.789C152.026,153.199 153.734,152.08 155.629,151.43C157.524,150.78 159.55,150.573 161.705,150.809L161.402,150.519L158.324,147.573L160.648,145.146L183.144,166.677L180.821,169.105L177.44,165.869ZM169.551,158.319C167.037,155.912 164.262,154.502 161.225,154.087C157.992,153.705 155.227,154.714 152.932,157.112C150.581,159.569 149.695,162.375 150.273,165.531C150.678,168.521 152.181,171.26 154.782,173.749C157.353,176.211 160.157,177.621 163.192,177.978C166.37,178.418 169.148,177.395 171.527,174.91C173.823,172.512 174.709,169.706 174.186,166.492C173.639,163.477 172.094,160.752 169.551,158.319ZM231.724,131.684L228.081,134.007L208.167,126.993C207.718,128.371 207.318,129.623 206.967,130.747C206.617,131.872 206.211,133.151 205.749,134.584L211.943,144.298L209.11,146.104L186.303,110.337L189.136,108.53L203.459,130.992C204.633,127.254 205.82,123.461 207.019,119.613C208.218,115.765 209.405,111.972 210.58,108.234L214.88,105.492L209.099,123.767L231.724,131.684ZM253.352,105.658C254.77,108.754 256.461,110.951 258.425,112.247L258.403,112.192C260.89,113.842 263.774,114.03 267.055,112.754C269.627,111.754 271.457,110.141 272.545,107.916C273.632,105.69 273.837,103.1 273.16,100.144L276.292,98.927C277.335,103.156 277.111,106.719 275.62,109.617C274.152,112.462 271.74,114.537 268.384,115.842C263.985,117.553 260.11,117.3 256.759,115.084C253.792,113.191 251.452,110.045 249.742,105.645C248.205,101.694 247.941,97.869 248.95,94.173C250.186,89.958 252.743,87.096 256.621,85.589C260.833,83.95 264.693,84.274 268.199,86.559C269.742,87.546 271.133,88.916 272.371,90.666C273.61,92.416 274.708,94.521 275.664,96.982L253.352,105.658ZM271.392,95.102C270.185,92.439 268.473,90.465 266.257,89.181C263.702,87.685 260.933,87.517 257.95,88.677C255.042,89.808 253.129,91.839 252.209,94.772C251.825,95.994 251.634,97.238 251.632,98.505C251.631,99.771 251.824,101.123 252.212,102.561L271.392,95.102ZM315.315,102.377L312.01,102.983L306.451,72.648L309.756,72.042L310.416,75.642C311.248,74.189 312.512,72.879 314.21,71.714C315.908,70.549 318.102,69.761 320.792,69.349L321.397,72.654C319.448,72.889 317.829,73.43 316.54,74.276C315.252,75.122 314.237,76.131 313.496,77.304C312.755,78.477 312.289,79.762 312.098,81.159C311.907,82.557 311.937,83.944 312.19,85.321L315.315,102.377ZM382.735,67.987L367.924,103.863C367.106,105.8 365.866,107.124 364.204,107.835C363.111,108.282 361.044,108.461 358.005,108.371L358.105,105.012C360.864,105.094 362.651,104.887 363.466,104.391C364.16,103.931 364.745,103.108 365.22,101.922C365.436,101.408 365.631,100.904 365.805,100.409C365.98,99.914 366.175,99.429 366.389,98.955C366.609,98.282 366.825,97.728 367.038,97.294C366.149,94.906 365.211,92.448 364.226,89.917C363.241,87.387 362.246,84.826 361.242,82.235C360.239,79.644 359.245,77.084 358.259,74.553C357.274,72.023 356.337,69.564 355.447,67.177L359.106,67.285L368.907,92.968C370.634,88.737 372.359,84.546 374.083,80.396C375.807,76.245 377.512,72.074 379.197,67.882L382.735,67.987Z" style="fill:rgb(35,31,32);fill-rule:nonzero;"/>
                        <path d="M131.981,202.486C133.82,203.674 135.369,204.992 136.625,206.438C137.835,207.83 138.774,209.343 139.442,210.974L139.473,210.926L139.552,211.114C140.369,213.083 140.681,215.027 140.487,216.944C140.294,218.862 139.595,220.752 138.392,222.614C137.802,223.528 137.135,224.341 136.395,225.05C135.654,225.76 134.838,226.368 133.947,226.874C133.058,227.378 132.138,227.775 131.19,228.063C130.341,228.32 129.47,228.491 128.577,228.574L132.231,230.935C131.582,231.935 130.937,232.937 130.291,233.938C118.363,226.212 106.412,218.521 94.479,210.802L96.419,207.8L109.351,216.013C109.039,215.173 108.829,214.326 108.721,213.474C108.599,212.518 108.605,211.554 108.74,210.584C108.874,209.615 109.125,208.654 109.494,207.703C109.861,206.753 110.346,205.812 110.946,204.883C112.105,203.088 113.519,201.718 115.185,200.776C116.764,199.883 118.57,199.374 120.601,199.249L120.55,199.217L120.886,199.2C122.744,199.106 124.598,199.334 126.448,199.882C128.296,200.429 130.141,201.298 131.981,202.486ZM136.462,206.579C135.219,205.149 133.687,203.844 131.864,202.667C130.042,201.49 128.216,200.63 126.388,200.088C124.674,199.581 122.957,199.352 121.238,199.402L121.288,199.434L120.946,199.448C118.812,199.533 116.927,200.039 115.292,200.964C113.656,201.888 112.268,203.234 111.127,205C110.534,205.918 110.056,206.845 109.694,207.78C109.333,208.714 109.085,209.659 108.953,210.613C108.822,211.565 108.815,212.51 108.934,213.447C109.053,214.384 109.299,215.316 109.669,216.24L109.794,216.55L96.483,208.096L94.776,210.738L130.227,233.64L131.933,230.999L127.922,228.407L128.245,228.385C129.235,228.316 130.196,228.14 131.127,227.857C132.06,227.574 132.965,227.184 133.841,226.687C134.715,226.19 135.518,225.593 136.246,224.895C136.974,224.197 137.629,223.397 138.211,222.498C139.395,220.664 140.083,218.806 140.273,216.923C140.456,215.103 140.176,213.257 139.43,211.387L139.396,211.44L139.319,211.245C138.656,209.564 137.703,208.008 136.462,206.579ZM130.041,205.49C128.588,204.551 127.126,203.843 125.658,203.368C124.192,202.894 122.718,202.65 121.237,202.639L121.041,202.637L121.064,202.601C119.566,202.707 118.234,203.097 117.068,203.771C115.848,204.476 114.808,205.494 113.95,206.823C113.015,208.27 112.455,209.719 112.274,211.167C112.092,212.613 112.285,214.062 112.854,215.512C113.379,216.818 114.16,218.049 115.197,219.203C116.236,220.359 117.534,221.44 119.087,222.443C120.557,223.393 122.032,224.086 123.513,224.522C124.99,224.957 126.474,225.136 127.963,225.06C129.57,224.944 130.993,224.52 132.229,223.79C133.465,223.059 134.519,222.021 135.389,220.675C136.269,219.311 136.778,217.933 136.914,216.539C137.05,215.147 136.814,213.736 136.207,212.309C135.638,210.996 134.84,209.772 133.814,208.637C132.786,207.5 131.528,206.45 130.041,205.49ZM125.724,203.163C127.21,203.644 128.688,204.359 130.157,205.308C131.66,206.278 132.932,207.341 133.973,208.493C135.015,209.646 135.826,210.89 136.405,212.224C137.027,213.685 137.268,215.131 137.128,216.56C136.989,217.988 136.469,219.399 135.57,220.791C134.682,222.165 133.604,223.227 132.339,223.975C131.072,224.723 129.618,225.157 127.979,225.276C126.463,225.353 124.954,225.171 123.452,224.729C121.952,224.287 120.458,223.585 118.971,222.625C117.401,221.61 116.088,220.517 115.037,219.346C113.983,218.174 113.188,216.921 112.654,215.592C112.071,214.107 111.873,212.623 112.06,211.141C112.245,209.661 112.815,208.182 113.768,206.707C114.646,205.348 115.711,204.307 116.96,203.584C118.21,202.862 119.645,202.458 121.265,202.373L121.475,202.362L121.433,202.426C122.871,202.457 124.302,202.703 125.724,203.163ZM177.34,165.966L177.332,165.871L177.327,165.612L180.817,168.953L182.992,166.681L160.651,145.298L158.476,147.57L162.009,150.951L161.694,150.916C160.624,150.799 159.586,150.792 158.581,150.895C157.577,150.997 156.604,151.21 155.664,151.532C154.725,151.854 153.831,152.293 152.985,152.847C152.138,153.403 151.336,154.075 150.582,154.863C149.086,156.426 148.035,158.127 147.431,159.964C146.826,161.8 146.666,163.775 146.951,165.888C147.216,167.736 147.817,169.507 148.753,171.201C149.69,172.896 150.964,174.515 152.574,176.056C154.199,177.611 155.876,178.824 157.604,179.693C159.329,180.561 161.108,181.088 162.937,181.272C165.076,181.478 167.053,181.241 168.868,180.564C170.683,179.886 172.34,178.765 173.835,177.202C175.344,175.625 176.395,173.918 176.986,172.082C177.576,170.246 177.709,168.279 177.382,166.181L177.375,166.103L177.34,165.966ZM177.598,166.169C177.926,168.293 177.79,170.286 177.191,172.148C176.59,174.015 175.523,175.75 173.991,177.351C172.472,178.938 170.789,180.076 168.943,180.766C167.097,181.455 165.088,181.695 162.917,181.486C161.06,181.299 159.256,180.765 157.507,179.885C155.76,179.006 154.065,177.781 152.425,176.211C150.799,174.655 149.512,173.019 148.564,171.304C147.615,169.588 147.006,167.792 146.737,165.918C146.448,163.771 146.611,161.764 147.225,159.896C147.84,158.03 148.908,156.301 150.426,154.715C151.193,153.914 152.007,153.231 152.867,152.667C153.729,152.102 154.638,151.656 155.594,151.329C156.549,151.001 157.537,150.785 158.559,150.681C159.481,150.586 160.43,150.583 161.405,150.671L158.172,147.577C158.996,146.715 159.818,145.852 160.645,144.994C168.198,152.217 175.756,159.437 183.296,166.674L180.824,169.257L177.598,166.169ZM169.476,158.396C168.227,157.201 166.913,156.252 165.535,155.552C164.159,154.853 162.718,154.4 161.213,154.194C159.612,154.005 158.129,154.16 156.763,154.658C155.397,155.156 154.146,156 153.009,157.187C151.846,158.402 151.045,159.705 150.607,161.092C150.169,162.478 150.093,163.951 150.379,165.511L150.38,165.516C150.58,166.998 151.054,168.418 151.798,169.776C152.544,171.136 153.564,172.435 154.856,173.672C156.134,174.895 157.469,175.857 158.861,176.557C160.251,177.255 161.699,177.694 163.205,177.871C164.778,178.089 166.25,177.945 167.622,177.44C168.996,176.934 170.272,176.066 171.449,174.836C172.585,173.649 173.372,172.362 173.811,170.974C174.249,169.587 174.338,168.099 174.08,166.51C173.809,165.015 173.29,163.591 172.523,162.24C171.756,160.887 170.74,159.605 169.476,158.396ZM165.633,155.36C167.03,156.07 168.361,157.031 169.625,158.241C170.904,159.465 171.933,160.763 172.71,162.134C173.489,163.507 174.016,164.954 174.292,166.473C174.556,168.098 174.464,169.62 174.016,171.039C173.569,172.457 172.764,173.773 171.605,174.985C170.404,176.239 169.101,177.126 167.697,177.642C166.291,178.159 164.785,178.307 163.179,178.086C161.65,177.905 160.178,177.459 158.765,176.749C157.353,176.039 156.001,175.065 154.707,173.827C153.399,172.575 152.366,171.259 151.609,169.88C150.852,168.498 150.37,167.053 150.166,165.545C149.875,163.952 149.953,162.445 150.401,161.026C150.849,159.608 151.667,158.278 152.854,157.038C154.013,155.827 155.293,154.965 156.69,154.456C158.088,153.946 159.605,153.787 161.238,153.98C162.77,154.189 164.235,154.649 165.633,155.36ZM231.781,131.775L228.094,134.126L208.235,127.132L207.632,128.998L206.503,132.582L205.867,134.569L212.092,144.33L209.077,146.252C201.411,134.286 193.81,122.276 186.154,110.304L189.168,108.381L203.425,130.739L205.135,125.285L208.706,113.85L210.489,108.165C212.014,107.187 213.544,106.215 215.072,105.242L209.233,123.7L231.968,131.656L231.781,131.775ZM228.068,133.888L231.479,131.713L208.964,123.834L214.687,105.743L210.671,108.304L208.911,113.914L205.341,125.349L203.492,131.245L189.103,108.679L186.451,110.369L209.142,145.955L211.794,144.265L205.631,134.599L206.297,132.517L207.427,128.933L208.099,126.855L228.068,133.888ZM253.497,105.717C254.19,107.213 254.948,108.495 255.769,109.562C256.524,110.542 257.333,111.342 258.197,111.96L258.179,111.913L258.462,112.102C259.69,112.916 261.015,113.37 262.438,113.463C263.865,113.555 265.391,113.285 267.016,112.654C268.289,112.159 269.38,111.511 270.285,110.713C271.189,109.916 271.911,108.967 272.448,107.868C272.985,106.769 273.305,105.577 273.406,104.295C273.508,103.011 273.391,101.635 273.055,100.168L273.034,100.078L276.367,98.782L276.396,98.901C276.921,101.026 277.127,102.986 277.014,104.778C276.901,106.574 276.468,108.204 275.716,109.666C274.975,111.101 273.996,112.343 272.78,113.389C271.565,114.435 270.112,115.286 268.423,115.943C266.208,116.803 264.124,117.171 262.172,117.043C260.216,116.916 258.391,116.292 256.7,115.174C255.206,114.22 253.87,112.951 252.693,111.368C251.518,109.788 250.5,107.892 249.641,105.684C248.869,103.698 248.416,101.743 248.284,99.821C248.151,97.898 248.338,96.005 248.846,94.144C249.469,92.02 250.425,90.237 251.715,88.794C253.004,87.351 254.627,86.248 256.582,85.489C258.704,84.663 260.738,84.332 262.684,84.495C264.63,84.658 266.489,85.316 268.257,86.468C269.034,86.966 269.774,87.56 270.475,88.249C271.174,88.938 271.836,89.723 272.459,90.604C273.081,91.482 273.668,92.45 274.219,93.507C274.77,94.564 275.285,95.709 275.765,96.943L275.804,97.043L253.497,105.717ZM255.598,109.693C254.748,108.589 253.966,107.259 253.254,105.703L253.206,105.599L275.525,96.92C275.059,95.732 274.56,94.627 274.028,93.607C273.482,92.559 272.9,91.599 272.283,90.728C271.668,89.858 271.015,89.083 270.324,88.403C269.634,87.724 268.906,87.139 268.141,86.649C266.403,85.517 264.578,84.87 262.666,84.71C260.752,84.55 258.749,84.877 256.659,85.689C254.737,86.436 253.142,87.52 251.875,88.937C250.608,90.355 249.667,92.111 249.053,94.203C248.553,96.038 248.368,97.906 248.499,99.806C248.63,101.708 249.078,103.642 249.842,105.607C250.693,107.796 251.702,109.675 252.865,111.24C254.027,112.802 255.345,114.054 256.817,114.993C258.478,116.091 260.267,116.703 262.186,116.828C264.108,116.953 266.161,116.591 268.345,115.742C270.011,115.094 271.443,114.255 272.64,113.225C273.835,112.197 274.797,110.977 275.524,109.567C276.263,108.133 276.688,106.531 276.799,104.764C276.908,103.027 276.714,101.129 276.216,99.072L273.286,100.211C273.611,101.665 273.723,103.033 273.622,104.312C273.518,105.621 273.191,106.838 272.642,107.963C272.091,109.089 271.353,110.06 270.428,110.875C269.505,111.689 268.392,112.349 267.094,112.855C265.438,113.498 263.882,113.773 262.425,113.678C261.071,113.59 259.804,113.184 258.624,112.46L258.649,112.525L258.365,112.337C257.374,111.683 256.451,110.801 255.598,109.693ZM271.247,95.043C270.657,93.765 269.948,92.648 269.122,91.695C268.274,90.717 267.301,89.91 266.203,89.274C264.941,88.535 263.626,88.124 262.258,88.041C260.888,87.958 259.465,88.203 257.989,88.777C256.551,89.336 255.358,90.118 254.412,91.122C253.467,92.126 252.767,93.354 252.312,94.804C252.122,95.408 251.979,96.02 251.884,96.638C251.789,97.257 251.74,97.879 251.74,98.505C251.74,99.131 251.787,99.781 251.883,100.453C251.974,101.088 252.108,101.743 252.285,102.417L271.247,95.043ZM269.285,91.554C270.147,92.549 270.883,93.717 271.491,95.058L271.538,95.161C265.067,97.657 258.599,100.18 252.139,102.705L252.107,102.589C251.913,101.866 251.766,101.164 251.669,100.484C251.573,99.804 251.524,99.144 251.525,98.505C251.525,97.865 251.574,97.231 251.67,96.605C251.767,95.979 251.912,95.357 252.106,94.74C252.571,93.258 253.288,92.003 254.255,90.975C255.223,89.947 256.442,89.148 257.911,88.577C259.417,87.991 260.871,87.741 262.27,87.825C263.671,87.91 265.019,88.331 266.311,89.088C267.43,89.735 268.421,90.558 269.285,91.554ZM315.334,102.483L311.923,103.108C310.05,92.928 308.182,82.745 306.326,72.561L309.843,71.917L310.47,75.339C310.864,74.696 311.345,74.081 311.911,73.495C312.548,72.835 313.295,72.211 314.15,71.625C315.005,71.038 315.987,70.545 317.093,70.148C318.198,69.751 319.426,69.449 320.776,69.242L320.879,69.227L321.524,72.748L321.41,72.761C320.442,72.878 319.557,73.071 318.755,73.338C317.954,73.606 317.235,73.949 316.599,74.366C315.961,74.785 315.391,75.245 314.889,75.744C314.387,76.243 313.952,76.783 313.587,77.362C313.221,77.941 312.922,78.549 312.692,79.184C312.462,79.819 312.299,80.482 312.205,81.174C312.11,81.867 312.07,82.558 312.085,83.246C312.1,83.933 312.171,84.619 312.296,85.302L315.44,102.464L315.334,102.483ZM312.096,102.857L315.189,102.291L312.084,85.34C311.957,84.646 311.885,83.949 311.87,83.249C311.854,82.55 311.895,81.848 311.991,81.145C312.087,80.44 312.254,79.761 312.49,79.111C312.725,78.462 313.031,77.84 313.405,77.247C313.779,76.654 314.224,76.101 314.737,75.591C315.249,75.082 315.831,74.613 316.481,74.186C317.133,73.758 317.869,73.407 318.687,73.134C319.472,72.872 320.334,72.681 321.271,72.561L320.705,69.472C319.406,69.676 318.225,69.969 317.165,70.35C316.078,70.741 315.112,71.226 314.271,71.803C313.428,72.381 312.693,72.995 312.066,73.645C311.44,74.293 310.921,74.977 310.509,75.696L310.363,75.952L309.67,72.167L306.577,72.734L312.096,102.857ZM382.835,68.028L368.023,103.904C367.609,104.885 367.088,105.711 366.459,106.382C365.829,107.055 365.091,107.573 364.246,107.934C363.687,108.163 362.886,108.322 361.843,108.412C360.808,108.502 359.528,108.524 358.003,108.479L357.895,108.476L358.001,104.901L358.108,104.904C359.482,104.945 360.614,104.914 361.502,104.811C362.378,104.71 363.012,104.54 363.406,104.301C363.742,104.079 364.053,103.767 364.337,103.367C364.624,102.962 364.886,102.467 365.12,101.882C365.23,101.619 365.333,101.365 365.427,101.12C365.522,100.876 365.614,100.626 365.703,100.373C365.878,99.878 366.073,99.392 366.288,98.917C366.397,98.583 366.506,98.275 366.616,97.996C366.718,97.735 366.82,97.498 366.921,97.288C366.491,96.132 366.039,94.935 365.567,93.697C365.088,92.441 364.607,91.192 364.126,89.956C362.134,84.836 360.15,79.713 358.159,74.592C357.656,73.3 357.175,72.052 356.718,70.853C356.259,69.648 355.801,68.434 355.346,67.214L355.29,67.064L359.181,67.18L368.911,92.674C369.707,90.723 370.536,88.703 371.397,86.611C372.278,84.471 373.14,82.387 373.983,80.354C374.86,78.245 375.717,76.164 376.555,74.114C377.394,72.062 378.241,69.971 379.097,67.842L379.125,67.772C380.381,67.805 381.638,67.845 382.894,67.884L382.835,68.028ZM367.825,103.821L382.576,68.09L379.269,67.992C378.449,70.032 377.61,72.1 376.754,74.195C375.887,76.316 375.03,78.397 374.182,80.437C373.303,82.555 372.44,84.642 371.596,86.692C370.77,88.699 369.906,90.807 369.007,93.008L368.904,93.261L359.031,67.391L355.604,67.289C356.023,68.412 356.462,69.574 356.92,70.776C357.399,72.033 357.879,73.279 358.36,74.515C360.351,79.635 362.335,84.758 364.327,89.878C364.83,91.172 365.311,92.419 365.769,93.621C366.228,94.826 366.686,96.039 367.139,97.257L367.155,97.3L367.135,97.341C367.03,97.555 366.923,97.8 366.816,98.074C366.71,98.347 366.601,98.652 366.491,98.989L366.487,99C366.275,99.47 366.081,99.952 365.907,100.445C365.822,100.686 365.729,100.937 365.628,101.198C365.528,101.456 365.425,101.712 365.32,101.964C365.079,102.564 364.81,103.074 364.513,103.491C364.213,103.914 363.883,104.244 363.526,104.481L363.522,104.483C363.101,104.739 362.435,104.92 361.527,105.025C360.652,105.126 359.546,105.159 358.21,105.123L358.116,108.266C359.582,108.307 360.818,108.284 361.825,108.197C362.847,108.108 363.627,107.955 364.162,107.736C364.979,107.386 365.693,106.885 366.302,106.235C366.913,105.582 367.421,104.778 367.825,103.821Z" style="fill:rgb(35,31,32);fill-rule:nonzero;"/>
                        <path d="M360.346,656.431L356.046,656.123L352.182,650.452C351.425,651.474 350.62,652.35 349.767,653.08C348.878,653.84 347.936,654.444 346.943,654.889C345.95,655.335 344.873,655.645 343.714,655.82C342.557,655.994 341.315,656.034 339.99,655.94C338.343,655.822 336.823,655.461 335.43,654.856C334.105,654.28 332.895,653.484 331.804,652.468L331.8,652.53L331.634,652.37C330.385,651.168 329.475,649.858 328.909,648.44C328.341,647.021 328.115,645.496 328.232,643.864C328.342,642.313 328.777,640.835 329.535,639.431C330.292,638.03 331.372,636.703 332.773,635.451C333.139,635.134 333.551,634.805 334.009,634.464C334.467,634.124 334.97,633.772 335.517,633.411C336.066,633.047 336.661,632.672 337.301,632.286C337.911,631.918 338.563,631.539 339.255,631.151C339.132,630.97 339.011,630.786 338.892,630.598C338.749,630.372 338.611,630.145 338.479,629.919L337.704,628.604L337.434,628.238L337.161,627.882C337.067,627.763 336.974,627.636 336.882,627.502C336.791,627.371 336.7,627.23 336.609,627.08C335.906,625.879 335.397,624.737 335.08,623.653C334.763,622.565 334.638,621.536 334.707,620.566C334.753,619.921 334.858,619.309 335.021,618.732C335.184,618.154 335.406,617.611 335.687,617.102C335.966,616.594 336.295,616.12 336.671,615.68C337.048,615.24 337.473,614.833 337.946,614.461C338.418,614.089 338.915,613.772 339.437,613.51C339.959,613.247 340.505,613.039 341.073,612.887C341.639,612.736 342.222,612.633 342.82,612.579C343.417,612.526 344.028,612.521 344.65,612.565C345.939,612.657 347.119,612.94 348.19,613.411C349.262,613.883 350.224,614.545 351.075,615.397C351.928,616.271 352.544,617.251 352.925,618.335C353.304,619.418 353.448,620.606 353.356,621.897C353.262,623.209 352.9,624.446 352.269,625.608C351.64,626.768 350.743,627.853 349.578,628.862C349.406,629.011 349.165,629.199 348.855,629.426C348.54,629.655 348.164,629.918 347.728,630.213C347.293,630.506 346.78,630.84 346.191,631.213C345.632,631.566 345.019,631.944 344.354,632.346C344.666,632.824 344.984,633.301 345.304,633.775C345.638,634.27 345.963,634.741 346.277,635.188L347.219,636.543C348.473,638.379 349.724,640.217 350.973,642.057L351.902,643.45C352.049,643.02 352.186,642.546 352.313,642.031C352.46,641.433 352.594,640.778 352.715,640.067C352.836,639.357 352.953,638.589 353.067,637.765C353.181,636.941 353.291,636.062 353.398,635.129L353.41,635.026L356.976,635.281L356.964,635.392C356.834,636.647 356.676,637.842 356.49,638.973C356.304,640.104 356.089,641.174 355.846,642.184C355.603,643.193 355.349,644.105 355.085,644.919C354.828,645.711 354.56,646.415 354.282,647.028L360.566,656.446L360.346,656.431ZM349.849,621.647C349.903,620.884 349.813,620.185 349.58,619.551C349.346,618.918 348.967,618.347 348.445,617.839C347.921,617.33 347.326,616.932 346.662,616.649C345.998,616.365 345.261,616.194 344.455,616.137C343.629,616.078 342.86,616.137 342.153,616.313C341.447,616.489 340.798,616.782 340.207,617.193C339.62,617.601 339.166,618.102 338.845,618.695C338.523,619.289 338.334,619.978 338.278,620.76C338.237,621.345 338.35,622.037 338.618,622.834C338.888,623.636 339.314,624.545 339.896,625.559C339.956,625.629 340.051,625.761 340.179,625.951C340.305,626.137 340.474,626.399 340.687,626.733L341.466,627.938L342.5,629.515C342.988,629.213 343.446,628.926 343.872,628.654C344.32,628.368 344.736,628.096 345.117,627.84C345.496,627.587 345.838,627.347 346.143,627.12C346.447,626.894 346.716,626.679 346.949,626.476C347.858,625.707 348.555,624.918 349.038,624.112C349.518,623.31 349.789,622.488 349.849,621.647ZM341.281,634.11C340.525,634.498 339.838,634.871 339.221,635.226C338.58,635.595 338.013,635.946 337.52,636.28C337.032,636.612 336.603,636.909 336.235,637.171C335.872,637.43 335.573,637.651 335.34,637.834C334.243,638.748 333.399,639.73 332.809,640.778C332.22,641.824 331.883,642.938 331.799,644.118C331.718,645.259 331.87,646.307 332.255,647.262C332.641,648.217 333.261,649.081 334.114,649.854C334.934,650.606 335.854,651.192 336.873,651.612C337.894,652.031 339.019,652.285 340.244,652.373C341.313,652.449 342.315,652.404 343.251,652.237C344.184,652.071 345.052,651.784 345.854,651.375C346.656,650.967 347.415,650.409 348.129,649.702C348.831,649.007 349.492,648.167 350.111,647.182L341.281,634.11ZM426.547,635.782C426.651,636.847 426.683,637.859 426.644,638.818C426.605,639.779 426.494,640.689 426.311,641.544C426.128,642.401 425.863,643.208 425.516,643.965C425.169,644.721 424.739,645.427 424.229,646.081C423.28,647.334 422.136,648.357 420.8,649.151C419.464,649.944 417.936,650.507 416.216,650.841C414.081,651.254 412.086,651.235 410.232,650.783C408.376,650.331 406.663,649.446 405.093,648.128C403.647,646.91 402.458,645.463 401.529,643.788C400.599,642.113 399.928,640.209 399.515,638.077C399.293,636.934 399.158,635.814 399.109,634.718C399.061,633.621 399.098,632.548 399.223,631.5C399.347,630.454 399.539,629.459 399.797,628.517C400.055,627.574 400.381,626.686 400.772,625.851C401.245,624.895 401.809,624.025 402.463,623.242C403.117,622.457 403.864,621.758 404.699,621.144C405.534,620.531 406.449,620.014 407.442,619.596C408.433,619.178 409.502,618.858 410.647,618.636C411.438,618.483 412.216,618.401 412.98,618.392C413.743,618.383 414.494,618.446 415.229,618.581C415.964,618.715 416.67,618.918 417.344,619.189C418.02,619.459 418.665,619.798 419.278,620.203C419.89,620.608 420.471,621.074 421.02,621.599C421.569,622.124 422.086,622.71 422.569,623.355C423.053,623.999 423.484,624.697 423.86,625.445C424.236,626.194 424.558,626.993 424.824,627.842L424.86,627.957L421.353,628.637L421.322,628.55C420.883,627.323 420.328,626.261 419.66,625.366C418.993,624.473 418.213,623.746 417.321,623.186C416.429,622.625 415.483,622.258 414.485,622.085C413.486,621.912 412.433,621.932 411.327,622.147C409.537,622.494 408.023,623.12 406.788,624.024C405.553,624.928 404.594,626.111 403.911,627.572C403.253,628.973 402.85,630.492 402.702,632.127C402.554,633.765 402.662,635.522 403.025,637.398C403.192,638.257 403.407,639.063 403.668,639.816C403.93,640.568 404.241,641.269 404.599,641.917C404.956,642.564 405.364,643.17 405.821,643.732C406.279,644.295 406.786,644.815 407.343,645.293C409.619,647.268 412.351,647.947 415.536,647.33C416.8,647.085 417.926,646.675 418.913,646.101C419.899,645.528 420.748,644.789 421.458,643.887C422.207,642.978 422.708,641.907 422.96,640.672C423.214,639.434 423.219,638.029 422.976,636.46L422.96,636.357C424.152,636.129 425.344,635.897 426.535,635.664L426.547,635.782ZM479.017,613.832C480.683,617.93 480.992,621.845 479.944,625.574C479.375,627.654 478.434,629.424 477.122,630.882C475.81,632.341 474.127,633.488 472.074,634.322C470.04,635.149 468.038,635.5 466.071,635.374C464.105,635.249 462.172,634.646 460.276,633.568C458.659,632.638 457.231,631.413 455.995,629.894C454.759,628.377 453.714,626.567 452.859,624.464C452.012,622.379 451.506,620.359 451.342,618.407C451.178,616.454 451.357,614.566 451.877,612.745C452.491,610.668 453.46,608.902 454.786,607.449C456.111,605.996 457.791,604.856 459.825,604.029C461.86,603.202 463.852,602.855 465.8,602.988C467.748,603.122 469.653,603.736 471.512,604.829C473.188,605.799 474.653,607.035 475.904,608.537C477.154,610.037 478.193,611.803 479.017,613.832ZM475.704,615.178C475.053,613.576 474.241,612.173 473.27,610.97C472.301,609.77 471.17,608.767 469.88,607.964C468.498,607.139 467.082,606.673 465.632,606.57C464.181,606.466 462.694,606.723 461.171,607.342C459.613,607.975 458.349,608.836 457.382,609.922C456.416,611.008 455.744,612.322 455.367,613.862L455.366,613.867C454.943,615.301 454.794,616.791 454.919,618.335C455.043,619.881 455.443,621.484 456.116,623.14C457.448,626.416 459.415,628.831 462.018,630.387C463.364,631.228 464.767,631.699 466.225,631.799C467.685,631.899 469.205,631.628 470.783,630.987C472.305,630.368 473.55,629.515 474.517,628.429C475.483,627.343 476.174,626.021 476.587,624.464C476.951,622.989 477.059,621.478 476.913,619.932C476.766,618.384 476.363,616.799 475.704,615.178ZM502.905,574.007C502.458,574.159 502.059,574.303 501.707,574.438C501.356,574.574 501.048,574.704 500.786,574.826C500.525,574.948 500.285,575.066 500.067,575.179C499.848,575.293 499.655,575.401 499.488,575.5C498.999,575.794 498.609,576.088 498.318,576.382C498.032,576.671 497.843,576.959 497.75,577.246C497.659,577.53 497.661,577.863 497.756,578.244C497.853,578.634 498.049,579.074 498.342,579.561L500.818,583.688L506.117,580.508L507.957,583.574L502.657,586.753L516.949,610.575L513.883,612.415L499.591,588.593L497.173,590.044L495.333,586.977L497.752,585.527L495.711,582.126C495.068,581.172 494.606,580.283 494.325,579.46C494.042,578.632 493.942,577.87 494.026,577.175C494.139,576.25 494.512,575.383 495.145,574.574C495.774,573.772 496.661,573.027 497.804,572.342C497.858,572.309 498.156,572.166 498.696,571.912L501.122,570.782L503.031,573.964L502.905,574.007ZM531.091,552.345C530.673,552.555 530.298,552.752 529.965,552.938C529.634,553.122 529.347,553.293 529.106,553.45C528.866,553.606 528.645,553.757 528.444,553.9C528.245,554.041 528.069,554.174 527.916,554.298C527.472,554.658 527.125,555.004 526.879,555.335C526.636,555.66 526.489,555.972 526.437,556.269C526.387,556.563 526.435,556.892 526.582,557.256C526.733,557.629 526.988,558.037 527.345,558.479L530.371,562.221L535.177,558.335L537.425,561.115L532.62,565.001L550.087,586.602L547.307,588.85L529.839,567.249L527.646,569.022L525.398,566.242L527.591,564.469L525.097,561.384C523.552,559.668 522.766,558.111 522.74,556.716C522.723,555.784 522.971,554.874 523.485,553.986C523.997,553.103 524.771,552.242 525.807,551.404C525.857,551.364 526.132,551.181 526.631,550.855L528.877,549.399L531.21,552.284L531.091,552.345ZM567.69,550.444C569.025,551.41 570.313,552.158 571.552,552.687C572.69,553.174 573.787,553.476 574.843,553.592L574.804,553.56L575.143,553.586C576.613,553.697 577.991,553.445 579.277,552.83C580.566,552.214 581.766,551.232 582.875,549.887C583.744,548.832 584.379,547.734 584.778,546.596C585.178,545.459 585.343,544.279 585.274,543.056C585.205,541.833 584.901,540.638 584.364,539.471C583.825,538.3 583.05,537.157 582.04,536.042L581.977,535.973L584.251,533.214L584.334,533.303C585.83,534.901 586.968,536.509 587.746,538.128C588.526,539.751 588.946,541.384 589.004,543.027C589.115,546.254 588.016,549.268 585.71,552.067C584.199,553.901 582.56,555.241 580.795,556.084C579.025,556.928 577.129,557.277 575.108,557.128C573.338,557.027 571.553,556.573 569.751,555.768C567.954,554.963 566.14,553.807 564.311,552.301C562.666,550.946 561.316,549.461 560.26,547.849C559.203,546.235 558.442,544.493 557.975,542.622C557.48,540.465 557.443,538.441 557.862,536.552C558.282,534.663 559.159,532.908 560.492,531.29C561.939,529.533 563.552,528.249 565.33,527.44C567.108,526.63 569.051,526.295 571.157,526.436C572.078,526.49 573.013,526.647 573.962,526.906C574.911,527.166 575.872,527.527 576.844,527.99C577.815,528.452 578.801,529.01 579.798,529.663C580.794,530.314 581.803,531.061 582.826,531.904L582.909,531.972L567.69,550.444ZM577.957,532.455C576.816,531.628 575.652,531 574.466,530.573C573.248,530.135 572.005,529.906 570.737,529.888C569.273,529.861 567.924,530.146 566.691,530.741C565.456,531.338 564.335,532.248 563.328,533.47C562.346,534.661 561.688,535.927 561.354,537.265C561.02,538.603 561.009,540.017 561.321,541.504C561.452,542.125 561.626,542.729 561.845,543.313C562.063,543.897 562.325,544.463 562.632,545.011C562.938,545.559 563.297,546.103 563.709,546.641C564.099,547.151 564.536,547.657 565.02,548.157L577.957,532.455ZM602.333,503.136C603.822,503.841 605.225,504.341 606.54,504.635C607.749,504.905 608.883,505.001 609.943,504.922L609.899,504.897L610.236,504.861C611.7,504.701 613.009,504.201 614.161,503.36C615.315,502.519 616.315,501.334 617.158,499.808C617.82,498.612 618.243,497.416 618.427,496.224C618.611,495.033 618.558,493.843 618.266,492.653C617.975,491.465 617.457,490.344 616.714,489.295C615.971,488.244 614.999,487.262 613.802,486.351L613.728,486.294L615.458,483.166L615.556,483.238C617.32,484.534 618.733,485.908 619.795,487.356C620.858,488.808 621.569,490.337 621.927,491.942C622.277,493.519 622.32,495.099 622.057,496.681C621.793,498.262 621.222,499.847 620.346,501.433C619.196,503.512 617.83,505.128 616.248,506.281C614.664,507.436 612.863,508.126 610.848,508.349C609.091,508.574 607.252,508.455 605.334,507.993C603.419,507.532 601.424,506.727 599.351,505.581C597.486,504.55 595.886,503.338 594.553,501.946C593.219,500.554 592.151,498.979 591.35,497.226C590.468,495.195 590.061,493.212 590.127,491.28C590.193,489.346 590.734,487.46 591.748,485.625C592.849,483.633 594.2,482.075 595.8,480.954C597.4,479.832 599.249,479.147 601.345,478.9C602.262,478.785 603.21,478.768 604.189,478.848C605.166,478.929 606.177,479.109 607.219,479.386C608.259,479.663 609.33,480.031 610.43,480.49C611.529,480.948 612.659,481.498 613.817,482.138L613.912,482.19L602.333,503.136ZM609.131,483.572C607.859,482.968 606.6,482.564 605.355,482.361C604.078,482.154 602.813,482.157 601.563,482.371C600.12,482.612 598.845,483.139 597.742,483.95C596.638,484.763 595.702,485.863 594.936,487.249C594.189,488.6 593.774,489.964 593.69,491.341C593.607,492.718 593.855,494.11 594.434,495.514C594.675,496.1 594.958,496.661 595.28,497.197C595.602,497.731 595.964,498.24 596.365,498.723C596.766,499.205 597.219,499.673 597.722,500.127C598.199,500.557 598.721,500.974 599.288,501.378L609.131,483.572Z" style="fill:rgb(54,54,57);fill-rule:nonzero;"/>
                    </g>
                </g>
            </g>
        </g>
    </g>
</svg>
